<svg xmlns="http://www.w3.org/2000/svg" viewBox="0 0 48 48" fill="none" role="img" aria-label="Apolaki">
  <defs>
    <linearGradient id="apRoof" x1="6" y1="16" x2="40" y2="35" gradientUnits="userSpaceOnUse">
      <stop offset="0" stop-color="#1A7CCB"/><stop offset=".55" stop-color="#0F6CBD"/><stop offset="1" stop-color="#0A4F8A"/>
    </linearGradient>
    <linearGradient id="apSun" x1="31" y1="6" x2="43" y2="17" gradientUnits="userSpaceOnUse">
      <stop offset="0" stop-color="#FFD874"/><stop offset=".5" stop-color="#F4C94C"/><stop offset="1" stop-color="#FFB81C"/>
    </linearGradient>
  </defs>
  <g class="sun">
    <g stroke="url(#apSun)" stroke-width="1.9" stroke-linecap="round">
      <line x1="37" y1="2.4" x2="37" y2="5.2"/>
      <line x1="44.1" y1="4.9" x2="42.1" y2="6.9"/>
      <line x1="46.6" y1="12" x2="43.8" y2="12"/>
      <line x1="44.1" y1="19.1" x2="42.1" y2="17.1"/>
      <line x1="29.9" y1="4.9" x2="31.9" y2="6.9"/>
    </g>
    <circle cx="37" cy="12" r="5.4" fill="url(#apSun)"/>
  </g>
  <path d="M23 15.2 L41 33.6 a1.4 1.4 0 0 1 -1 2.4 L7 36 a1.4 1.4 0 0 1 -1 -2.4 Z" fill="url(#apRoof)"/>
  <g stroke="#FFFFFF" stroke-width="1.3" stroke-linecap="round" opacity=".88">
    <path d="M16.6 24.4 L29.4 24.4" />
    <path d="M11.6 29.4 L34.4 29.4" />
    <path d="M23 16.8 L23 35.4" />
    <path d="M16.5 24.6 L16.5 35.6" />
    <path d="M29.5 24.6 L29.5 35.6" />
  </g>
</svg>
