<?xml version="1.0" encoding="UTF-8" standalone="no"?>
<svg
   xmlns:dc="http://purl.org/dc/elements/1.1/"
   xmlns:cc="http://creativecommons.org/ns#"
   xmlns:rdf="http://www.w3.org/1999/02/22-rdf-syntax-ns#"
   xmlns:svg="http://www.w3.org/2000/svg"
   xmlns="http://www.w3.org/2000/svg"
   xmlns:sodipodi="http://sodipodi.sourceforge.net/DTD/sodipodi-0.dtd"
   xmlns:inkscape="http://www.inkscape.org/namespaces/inkscape"
   width="375.28323"
   height="103.0732"
   viewBox="0 0 99.293684 27.271453"
   version="1.1"
   id="svg16"
   inkscape:version="1.0.1 (c497b03c, 2020-09-10)"
   sodipodi:docname="Royal Academy Eng.svg">
  <defs
     id="defs10">
    <clipPath
       id="clip413">
      <path
         d="M 56.160156,686 H 100 v 25 H 56.160156 Z m 0,0"
         id="path3358" />
    </clipPath>
    <clipPath
       id="clip414">
      <path
         d="m 103,679.01562 h 16 V 698 h -16 z m 0,0"
         id="path3361" />
    </clipPath>
    <clipPath
       id="clip415">
      <path
         d="m 122,679.01562 h 16 V 698 h -16 z m 0,0"
         id="path3364" />
    </clipPath>
    <clipPath
       id="clip416">
      <path
         d="m 141,679.01562 h 14 V 698 h -14 z m 0,0"
         id="path3367" />
    </clipPath>
    <clipPath
       id="clip417">
      <path
         d="m 159,679.01562 h 14 V 698 h -14 z m 0,0"
         id="path3370" />
    </clipPath>
    <clipPath
       id="clip418">
      <path
         d="m 175,679.01562 h 15.125 V 698 H 175 Z m 0,0"
         id="path3373" />
    </clipPath>
    <clipPath
       id="clip1">
      <path
         d="m 595,31 h 17.37109 V 50 H 595 Z m 0,0"
         id="path12837" />
    </clipPath>
    <clipPath
       id="clip2">
      <path
         d="m 72,79 h 83 v 24.37891 H 72 Z m 0,0"
         id="path12840" />
    </clipPath>
    <clipPath
       id="clip1-76">
      <path
         d="m 36,36 h 81 V 99.136719 H 36 Z m 0,0"
         id="path16783" />
    </clipPath>
    <clipPath
       id="clip2-9">
      <path
         d="m 251,71 h 7.97266 V 84 H 251 Z m 0,0"
         id="path16786" />
    </clipPath>
    <polygon
       id="path-1"
       points="3.0417031,2.9803922 0.10520784,2.9803922 0.10520784,0.043428571 3.0417031,0.043428571 " />
    <polygon
       id="path-3"
       points="6.3158342,9.9577031 0,9.9577031 0,0.25397199 6.3158342,0.25397199 " />
  </defs>
  <sodipodi:namedview
     id="base"
     pagecolor="#00ffff"
     bordercolor="#666666"
     borderopacity="1.0"
     inkscape:pageopacity="0"
     inkscape:pageshadow="2"
     inkscape:zoom="0.83119784"
     inkscape:cx="299.05898"
     inkscape:cy="59.374226"
     inkscape:document-units="px"
     inkscape:current-layer="layer1"
     inkscape:document-rotation="0"
     showgrid="false"
     units="px"
     fit-margin-top="0.5"
     lock-margins="true"
     fit-margin-left="0.5"
     fit-margin-right="0.5"
     fit-margin-bottom="0.5"
     inkscape:window-width="1440"
     inkscape:window-height="874"
     inkscape:window-x="0"
     inkscape:window-y="26"
     inkscape:window-maximized="0" />
  <metadata
     id="metadata13">
    <rdf:RDF>
      <cc:Work
         rdf:about="">
        <dc:format>image/svg+xml</dc:format>
        <dc:type
           rdf:resource="http://purl.org/dc/dcmitype/StillImage" />
        <dc:title></dc:title>
      </cc:Work>
    </rdf:RDF>
  </metadata>
  <g
     inkscape:label="Layer 1"
     inkscape:groupmode="layer"
     id="layer1"
     transform="translate(158.70254,-69.3165)">
    <g
       id="g23534"
       transform="matrix(0.11762573,0,0,0.11762573,-158.57025,69.331166)">
      <polygon
         class="st0"
         points="115,7.5 109.3,1 106.9,3.9 "
         id="polygon23394" />
      <polygon
         class="st0"
         points="109.5,9.9 109.3,10 109.8,10.2 "
         id="polygon23396" />
      <polygon
         class="st0"
         points="43.6,222.5 47.2,230.2 69.6,230.2 73.2,222.5 49.8,212.3 "
         id="polygon23398" />
      <polygon
         class="st0"
         points="88.2,230.2 96.6,211.5 46.1,188.6 35.5,205.5 39.7,214.4 49.3,199.2 85.7,215.6 79.1,230.2 "
         id="polygon23400" />
      <polygon
         class="st0"
         points="102.8,230.2 116.8,197.9 46.3,164.4 28.3,190.3 32.1,198.2 48.9,174 106.9,201.6 94.5,230.2 "
         id="polygon23402" />
      <polygon
         class="st0"
         points="116.3,230.2 137.2,184.3 46.4,142.3 21.4,175.7 24.8,182.8 48.6,150.9 128.1,187.7 108.6,230.2 "
         id="polygon23404" />
      <polygon
         class="st0"
         points="129.5,230.2 157.6,170.7 46.4,120.2 14.4,160.9 17.4,167.2 48.3,127.9 149.2,173.7 122.6,230.2 "
         id="polygon23406" />
      <polygon
         class="st0"
         points="142.7,230.2 177.9,157 46.5,98.1 7.3,145.8 10,151.4 48.1,104.9 170.4,159.8 136.5,230.2 "
         id="polygon23408" />
      <polygon
         class="st0"
         points="191.6,145.8 150.3,230.2 155.7,230.2 198.3,143.4 46.5,76 0.1,130.7 0,130.4 0.1,130.7 2.5,135.6 47.8,82 "
         id="polygon23410" />
      <polygon
         class="st0"
         points="192.8,99.3 187.4,92.9 74.7,42.1 72.3,44.9 "
         id="polygon23412" />
      <polygon
         class="st0"
         points="164.4,66 159,59.6 87.2,27.4 84.8,30.2 "
         id="polygon23414" />
      <polygon
         class="st0"
         points="136.7,33.1 131.2,26.7 99.6,12.5 97.2,15.4 "
         id="polygon23416" />
      <polygon
         class="st0"
         points="219.2,130.4 219.1,130.4 61,58.3 58.1,61.8 213.4,132.5 164.9,230.2 169.8,230.2 202,165.2 "
         id="polygon23418" />
      <g
         id="g23424">
	<path
   class="st0"
   d="m 282.4,132.3 -10.8,-15.5 c -0.7,0.1 -1.4,0.1 -2,0.1 h -11.9 v 15.4 h -9.8 V 79.5 h 21.7 c 13.9,0 22.5,7.1 22.5,18.8 0,8 -4.1,13.9 -11.2,16.7 l 12.2,17.4 H 282.4 Z M 269.1,87.8 h -11.5 v 21.1 h 11.5 c 8.6,0 13.1,-3.9 13.1,-10.6 0,-6.7 -4.5,-10.5 -13.1,-10.5 z"
   id="path23420" />

	<path
   class="st0"
   d="m 298.8,112.2 c 0,-12.1 9.1,-20.6 21.4,-20.6 12.5,0 21.5,8.5 21.5,20.6 0,12.1 -9,20.7 -21.5,20.7 -12.4,0 -21.4,-8.7 -21.4,-20.7 z m 33.4,0 c 0,-7.7 -5.1,-12.6 -12,-12.6 -6.8,0 -11.9,4.9 -11.9,12.6 0,7.7 5.1,12.6 11.9,12.6 6.9,0 12,-4.9 12,-12.6 z"
   id="path23422" />

</g>
      <g
         id="g23430">
	<path
   class="st0"
   d="m 387.4,92 -18.9,43.5 c -3.7,9.1 -8.8,11.9 -15.5,11.9 -4,0 -8.2,-1.4 -10.8,-3.7 l 3.8,-6.9 c 1.8,1.7 4.4,2.8 6.9,2.8 3.3,0 5.3,-1.6 7.1,-5.6 l 0.7,-1.6 L 343.1,92 h 9.8 l 12.7,29.8 12.7,-29.8 z"
   id="path23426" />

	<path
   class="st0"
   d="m 427,108.7 v 23.6 h -8.9 v -4.9 c -2.3,3.5 -6.6,5.4 -12.7,5.4 -9.2,0 -15,-5.1 -15,-12.1 0,-6.7 4.5,-12 16.8,-12 h 10.4 v -0.6 c 0,-5.5 -3.3,-8.8 -10,-8.8 -4.5,0 -9.2,1.5 -12.2,4 l -3.7,-6.9 c 4.3,-3.3 10.6,-5 17.1,-5 11.5,0.2 18.2,5.7 18.2,17.3 z m -9.4,11 V 115 h -9.7 c -6.4,0 -8.2,2.4 -8.2,5.4 0,3.4 2.9,5.6 7.7,5.6 4.6,0 8.6,-2.1 10.2,-6.3 z"
   id="path23428" />

</g>
      <g
         id="g23446">
	<path
   class="st0"
   d="m 437.8,76.3 h 9.4 v 56 h -9.4 z"
   id="path23432" />

	<path
   class="st0"
   d="m 515.6,120.1 h -26.4 l -5.2,12.2 h -10.1 l 23.8,-52.8 h 9.7 l 23.8,52.8 h -10.3 z m -3.2,-7.7 -10,-23.1 -9.9,23.1 z"
   id="path23434" />

	<path
   class="st0"
   d="m 533.7,112.2 c 0,-12.1 9.1,-20.6 21.8,-20.6 7.8,0 14.1,3.2 17.2,9.4 l -7.2,4.2 c -2.4,-3.8 -6,-5.6 -10,-5.6 -6.9,0 -12.2,4.8 -12.2,12.6 0,7.8 5.3,12.6 12.2,12.6 4,0 7.6,-1.7 10,-5.6 l 7.2,4.2 c -3.1,6 -9.4,9.4 -17.2,9.4 -12.8,0.1 -21.8,-8.6 -21.8,-20.6 z"
   id="path23436" />

	<path
   class="st0"
   d="m 614.6,108.7 v 23.6 h -8.9 v -4.9 c -2.3,3.5 -6.6,5.4 -12.7,5.4 -9.2,0 -15,-5.1 -15,-12.1 0,-6.7 4.5,-12 16.8,-12 h 10.4 v -0.6 c 0,-5.5 -3.3,-8.8 -10,-8.8 -4.5,0 -9.2,1.5 -12.2,4 l -3.7,-6.9 c 4.3,-3.3 10.6,-5 17.1,-5 11.5,0.2 18.2,5.7 18.2,17.3 z m -9.5,11 V 115 h -9.7 c -6.4,0 -8.2,2.4 -8.2,5.4 0,3.4 2.9,5.6 7.7,5.6 4.6,0 8.6,-2.1 10.2,-6.3 z"
   id="path23438" />

	<path
   class="st0"
   d="m 666.1,76.3 v 56 H 657 v -5.2 c -3.2,3.8 -7.8,5.7 -13.4,5.7 -11.7,0 -20.4,-8.1 -20.4,-20.7 0,-12.6 8.7,-20.6 20.4,-20.6 5.2,0 9.8,1.7 13,5.4 V 76.3 Z m -9.3,35.9 c 0,-7.7 -5.2,-12.6 -12,-12.6 -6.8,0 -12,4.9 -12,12.6 0,7.7 5.2,12.6 12,12.6 6.8,0 12,-4.9 12,-12.6 z"
   id="path23440" />

	<path
   class="st0"
   d="m 716.2,115.2 h -31.6 c 1.1,5.9 6,9.7 13.1,9.7 4.5,0 8.1,-1.4 10.9,-4.4 l 5.1,5.8 c -3.6,4.3 -9.3,6.6 -16.2,6.6 -13.5,0 -22.3,-8.7 -22.3,-20.7 0,-12 8.8,-20.6 20.8,-20.6 11.8,0 20.4,8.2 20.4,20.8 0,0.8 -0.1,1.9 -0.2,2.8 z m -31.7,-6.3 h 22.9 c -0.8,-5.8 -5.2,-9.8 -11.4,-9.8 -6.1,0 -10.6,3.9 -11.5,9.8 z"
   id="path23442" />

	<path
   class="st0"
   d="m 792.8,109.2 v 23.1 h -9.4 v -21.9 c 0,-7.2 -3.3,-10.6 -9.1,-10.6 -6.2,0 -10.5,4.1 -10.5,12.1 v 20.5 h -9.4 v -21.9 c 0,-7.2 -3.3,-10.6 -9.1,-10.6 -6.3,0 -10.5,4.1 -10.5,12.1 v 20.5 h -9.4 V 92 h 9 v 5.1 c 3,-3.6 7.7,-5.6 13.2,-5.6 5.9,0 10.8,2.2 13.6,6.7 3.2,-4.2 8.7,-6.7 15.1,-6.7 9.7,0.1 16.5,5.6 16.5,17.7 z"
   id="path23444" />

</g>
      <g
         id="g23450">
	<path
   class="st0"
   d="M 841.9,92 823,135.6 c -3.7,9.1 -8.8,11.9 -15.5,11.9 -4,0 -8.2,-1.4 -10.8,-3.7 l 3.8,-6.9 c 1.8,1.7 4.4,2.8 6.9,2.8 3.3,0 5.3,-1.6 7.1,-5.6 l 0.7,-1.6 L 797.6,92 h 9.8 l 12.7,29.8 12.7,-29.8 z"
   id="path23448" />

</g>
      <g
         id="g23476">
	<path
   class="st0"
   d="m 243.6,195.3 c 0,-12.1 9.1,-20.6 21.4,-20.6 12.5,0 21.5,8.5 21.5,20.6 0,12.1 -9,20.7 -21.5,20.7 -12.3,0 -21.4,-8.7 -21.4,-20.7 z m 33.4,0 c 0,-7.7 -5.1,-12.6 -12,-12.6 -6.8,0 -11.9,4.9 -11.9,12.6 0,7.7 5.1,12.6 11.9,12.6 6.9,0 12,-4.9 12,-12.6 z"
   id="path23452" />

	<path
   class="st0"
   d="m 306,173 v 2.4 h 11.1 v 7.5 h -10.8 v 32.5 h -9.4 V 183 h -6.6 v -7.5 h 6.6 v -2.6 c 0,-8.5 5.1,-14 14.4,-14 3.2,0 6.4,0.7 8.5,2.2 l -2.6,7.1 c -1.4,-1 -3.2,-1.7 -5.2,-1.7 -3.9,0 -6,2.2 -6,6.5 z"
   id="path23454" />

	<path
   class="st0"
   d="m 384.8,207.2 v 8.2 h -39.6 v -52.8 h 38.6 v 8.2 H 355 v 13.7 h 25.5 v 8.1 H 355 v 14.6 z"
   id="path23456" />

	<path
   class="st0"
   d="m 434.6,192.3 v 23.1 h -9.4 v -21.9 c 0,-7.2 -3.5,-10.6 -9.6,-10.6 -6.7,0 -11.2,4.1 -11.2,12.2 v 20.4 H 395 v -40.3 h 9 v 5.2 c 3.1,-3.7 8,-5.7 13.9,-5.7 9.5,0 16.7,5.5 16.7,17.6 z"
   id="path23458" />

	<path
   class="st0"
   d="m 486.6,175.1 v 34.2 c 0,14.6 -7.6,21.3 -21.7,21.3 -7.5,0 -15,-2 -19.6,-5.7 l 4.2,-7.1 c 3.5,2.9 9.3,4.8 14.9,4.8 8.9,0 12.8,-4.1 12.8,-12.2 v -2.1 c -3.3,3.6 -8.1,5.4 -13.5,5.4 -11.5,0 -20.4,-7.8 -20.4,-19.5 0,-11.7 8.8,-19.4 20.4,-19.4 5.7,0 10.6,1.8 14,5.8 v -5.4 h 8.9 z m -9.3,19 c 0,-6.8 -5.1,-11.4 -12.2,-11.4 -7.2,0 -12.3,4.6 -12.3,11.4 0,6.9 5.1,11.5 12.3,11.5 7,0 12.2,-4.7 12.2,-11.5 z"
   id="path23460" />

	<path
   class="st0"
   d="m 497.7,162.8 c 0,-3.2 2.6,-5.7 6,-5.7 3.4,0 6,2.3 6,5.4 0,3.3 -2.5,5.9 -6,5.9 -3.5,0.1 -6,-2.4 -6,-5.6 z m 1.2,12.3 h 9.4 v 40.3 h -9.4 z"
   id="path23462" />

	<path
   class="st0"
   d="m 560.4,192.3 v 23.1 H 551 v -21.9 c 0,-7.2 -3.5,-10.6 -9.6,-10.6 -6.7,0 -11.2,4.1 -11.2,12.2 v 20.4 h -9.4 v -40.3 h 9 v 5.2 c 3.1,-3.7 8,-5.7 13.9,-5.7 9.6,0 16.7,5.5 16.7,17.6 z"
   id="path23464" />

	<path
   class="st0"
   d="m 610.2,198.3 h -31.6 c 1.1,5.9 6,9.7 13.1,9.7 4.5,0 8.1,-1.4 10.9,-4.4 l 5.1,5.8 c -3.6,4.3 -9.3,6.6 -16.2,6.6 -13.5,0 -22.3,-8.7 -22.3,-20.7 0,-12 8.8,-20.6 20.8,-20.6 11.8,0 20.4,8.2 20.4,20.8 -0.1,0.8 -0.1,1.9 -0.2,2.8 z M 578.5,192 h 22.9 c -0.8,-5.8 -5.2,-9.8 -11.4,-9.8 -6.2,0 -10.6,3.9 -11.5,9.8 z"
   id="path23466" />

	<path
   class="st0"
   d="m 657.1,198.3 h -31.6 c 1.1,5.9 6,9.7 13.1,9.7 4.5,0 8.1,-1.4 10.9,-4.4 l 5.1,5.8 c -3.6,4.3 -9.3,6.6 -16.2,6.6 -13.5,0 -22.3,-8.7 -22.3,-20.7 0,-12 8.8,-20.6 20.8,-20.6 11.8,0 20.4,8.2 20.4,20.8 0,0.8 -0.1,1.9 -0.2,2.8 z M 625.4,192 h 22.9 c -0.8,-5.8 -5.2,-9.8 -11.4,-9.8 -6.1,0 -10.6,3.9 -11.5,9.8 z"
   id="path23468" />

	<path
   class="st0"
   d="m 689.7,174.7 v 9 c -0.8,-0.2 -1.5,-0.2 -2.2,-0.2 -7.2,0 -11.7,4.2 -11.7,12.5 v 19.5 h -9.4 v -40.3 h 9 v 5.9 c 2.6,-4.3 7.5,-6.4 14.3,-6.4 z"
   id="path23470" />

	<path
   class="st0"
   d="m 696.7,162.8 c 0,-3.2 2.6,-5.7 6,-5.7 3.4,0 6,2.3 6,5.4 0,3.3 -2.5,5.9 -6,5.9 -3.4,0.1 -6,-2.4 -6,-5.6 z m 1.3,12.3 h 9.4 v 40.3 H 698 Z"
   id="path23472" />

	<path
   class="st0"
   d="m 759.5,192.3 v 23.1 h -9.4 v -21.9 c 0,-7.2 -3.5,-10.6 -9.6,-10.6 -6.7,0 -11.2,4.1 -11.2,12.2 v 20.4 h -9.4 v -40.3 h 9 v 5.2 c 3.1,-3.7 8,-5.7 13.9,-5.7 9.6,0 16.7,5.5 16.7,17.6 z"
   id="path23474" />

</g>
      <g
         id="g23480">
	<path
   class="st0"
   d="m 812.3,175.1 v 34.2 c 0,14.6 -7.6,21.3 -21.7,21.3 -7.5,0 -15,-2 -19.6,-5.7 l 4.2,-7.1 c 3.5,2.9 9.3,4.8 14.9,4.8 8.9,0 12.8,-4.1 12.8,-12.2 v -2.1 c -3.3,3.6 -8.1,5.4 -13.5,5.4 -11.5,0 -20.4,-7.8 -20.4,-19.5 0,-11.7 8.8,-19.4 20.4,-19.4 5.7,0 10.6,1.8 14,5.8 v -5.4 h 8.9 z m -9.3,19 c 0,-6.8 -5.1,-11.4 -12.2,-11.4 -7.2,0 -12.3,4.6 -12.3,11.4 0,6.9 5.1,11.5 12.3,11.5 7.1,0 12.2,-4.7 12.2,-11.5 z"
   id="path23478" />

</g>
    </g>
  </g>
  <style
     type="text/css"
     id="style23392">
	.st0{fill:#010202;}
</style>
</svg>
